<?xml version="1.0" encoding="UTF-8" standalone="no"?>
<!DOCTYPE svg PUBLIC "-//W3C//DTD SVG 1.1//EN" "http://www.w3.org/Graphics/SVG/1.1/DTD/svg11.dtd">
<svg xmlns="http://www.w3.org/2000/svg" version="1.1" viewBox="0.00 0.00 1024.00 1024.00">
<path fill="#000000" d="
  M 597.13 444.10
  L 596.91 446.33
  L 596.97 581.80
  L 596.64 582.91
  L 595.75 583.65
  L 577.91 591.36
  L 560.25 599.25
  L 541.92 607.25
  L 529.20 612.80
  L 515.61 619.10
  L 514.85 619.41
  L 512.71 619.80
  L 510.35 619.59
  L 507.64 618.77
  L 504.12 617.20
  L 503.14 616.73
  L 497.89 614.30
  L 435.41 587.18
  L 427.97 584.02
  L 427.25 583.46
  L 427.00 582.55
  L 427.00 443.92
  L 426.69 443.27
  L 426.00 443.10
  L 425.84 443.15
  L 403.08 452.80
  L 402.27 453.44
  L 402.00 454.43
  L 402.00 570.00
  L 401.71 570.70
  L 401.01 570.99
  L 384.89 570.99
  L 384.24 570.87
  L 383.69 570.51
  L 383.30 569.98
  L 383.13 569.34
  L 383.04 564.75
  L 382.99 489.49
  L 383.13 476.57
  L 383.61 460.04
  L 384.14 441.00
  L 384.28 440.56
  L 384.64 440.26
  L 425.97 422.74
  L 426.73 422.11
  L 427.01 421.17
  L 427.01 322.25
  L 427.21 321.63
  L 427.74 321.24
  L 429.94 320.37
  L 510.64 285.64
  L 511.48 285.39
  L 512.81 285.38
  L 514.22 285.81
  L 539.86 296.90
  L 560.45 305.74
  L 595.19 320.67
  L 595.92 321.12
  L 596.49 321.75
  L 596.86 322.53
  L 596.98 323.37
  L 596.98 420.02
  L 597.12 420.97
  L 597.53 421.84
  L 598.16 422.55
  L 598.98 423.05
  L 639.99 440.53
  L 640.72 441.14
  L 641.00 442.06
  L 641.00 568.92
  L 640.84 569.71
  L 640.39 570.38
  L 639.72 570.83
  L 638.93 570.99
  L 622.62 570.99
  L 622.16 570.84
  L 622.00 570.37
  L 622.00 454.67
  L 621.63 453.44
  L 620.65 452.61
  L 598.90 443.34
  L 598.31 443.19
  L 597.82 443.26
  L 597.82 443.26
  L 597.42 443.56
  L 597.13 444.10
  Z
  M 445.31 337.44
  L 445.07 342.74
  L 445.40 350.14
  L 445.55 352.73
  L 445.62 356.49
  L 445.48 360.82
  L 445.17 368.32
  L 445.06 375.89
  L 445.15 383.54
  L 445.45 391.26
  L 445.59 395.73
  L 445.49 399.77
  L 445.23 403.91
  L 444.90 410.41
  L 445.14 415.13
  L 445.31 415.57
  L 445.66 415.87
  L 450.37 418.14
  L 479.40 430.50
  L 507.58 442.82
  L 509.85 443.63
  L 511.91 443.89
  L 513.93 443.62
  L 516.13 442.85
  L 572.87 418.60
  L 576.93 416.57
  L 577.31 416.26
  L 577.55 415.85
  L 578.11 413.76
  L 578.02 335.90
  L 577.89 335.01
  L 577.51 334.20
  L 576.91 333.53
  L 576.15 333.07
  L 541.65 318.26
  L 515.60 306.74
  L 513.78 306.05
  L 511.95 305.60
  L 511.48 305.58
  L 510.96 305.72
  L 505.60 307.91
  L 500.98 309.80
  L 446.76 333.77
  L 445.81 334.50
  L 445.46 335.32
  L 445.35 336.56
  L 445.31 337.44
  Z
  M 512.59 464.48
  L 511.45 464.60
  L 510.50 464.44
  L 509.36 464.02
  L 473.94 448.62
  L 446.59 437.02
  L 446.39 436.96
  L 445.89 436.97
  L 445.44 437.18
  L 445.13 437.57
  L 445.01 438.06
  L 444.86 451.96
  L 445.00 465.71
  L 445.42 479.30
  L 446.12 492.73
  L 446.36 493.43
  L 446.94 493.90
  L 495.33 514.96
  L 510.21 521.12
  L 512.24 521.59
  L 514.35 521.13
  L 514.58 521.06
  L 522.11 517.70
  L 551.15 504.85
  L 575.68 494.36
  L 576.67 493.76
  L 577.45 492.89
  L 577.94 491.84
  L 578.11 490.69
  L 578.04 438.25
  L 577.78 437.44
  L 577.36 437.22
  L 576.49 437.29
  L 523.28 460.01
  L 512.59 464.48
  Z
  M 445.45 514.53
  L 445.53 516.16
  L 445.21 518.18
  L 444.90 520.25
  L 444.94 531.44
  L 445.46 547.89
  L 445.70 554.58
  L 445.66 557.76
  L 445.31 561.94
  L 444.91 567.29
  L 444.98 568.82
  L 445.27 570.20
  L 445.51 570.64
  L 445.89 570.95
  L 451.41 573.64
  L 502.27 595.77
  L 508.55 598.71
  L 510.23 599.38
  L 511.66 599.57
  L 512.67 599.44
  L 513.76 599.07
  L 576.00 572.12
  L 576.83 571.61
  L 577.48 570.88
  L 577.89 570.00
  L 578.03 569.04
  L 578.03 514.94
  L 578.02 514.85
  L 577.69 514.29
  L 577.05 514.17
  L 574.66 514.91
  L 515.20 541.20
  L 514.89 541.33
  L 514.89 541.33
  L 513.19 541.76
  L 511.33 541.78
  L 509.31 541.40
  L 507.13 540.61
  L 448.98 515.33
  L 445.83 514.16
  L 445.50 514.19
  L 445.45 514.53
  Z"
/>
<path fill="#000000" d="
  M 465.06 349.95
  L 465.26 349.36
  L 465.62 349.04
  L 466.09 348.93
  L 486.63 349.04
  L 487.54 349.22
  L 488.32 349.72
  L 488.84 350.47
  L 489.02 351.34
  L 488.92 368.76
  L 488.92 368.76
  L 488.74 369.64
  L 488.21 370.38
  L 487.43 370.87
  L 486.51 371.04
  L 465.97 370.93
  L 465.38 370.74
  L 465.07 370.37
  L 464.96 369.91
  L 465.06 349.95
  Z"
/>
<rect fill="#000000" x="-11.52" y="-11.00" transform="translate(542.53,360.00) rotate(0.1)" width="23.04" height="22.00" rx="1.02"/>
<rect fill="#000000" x="464.95" y="393.00" width="60.04" height="20.98" rx="1.37"/>
<path fill="#000000" d="
  M 310.97 669.99
  L 310.24 670.24
  L 309.99 670.97
  L 309.99 676.71
  L 310.31 677.66
  L 311.25 677.97
  L 319.34 677.97
  L 319.82 678.13
  L 319.99 678.63
  L 319.99 686.00
  L 319.99 686.03
  L 320.31 686.73
  L 321.04 686.99
  L 321.61 686.96
  L 321.61 686.96
  L 325.55 687.20
  L 329.51 688.15
  L 329.86 688.41
  L 330.00 688.83
  L 330.00 694.03
  L 330.00 694.03
  L 330.27 694.68
  L 330.93 694.95
  L 338.25 694.95
  L 338.25 694.95
  L 338.80 695.18
  L 339.03 695.74
  L 339.03 730.19
  L 338.90 730.55
  L 338.52 730.58
  L 334.61 729.97
  L 330.36 730.09
  L 330.09 730.23
  L 329.98 730.52
  L 329.98 737.25
  L 329.76 737.78
  L 329.24 738.00
  L 329.24 738.00
  L 301.50 738.00
  L 301.13 737.88
  L 301.00 737.50
  L 301.00 730.75
  L 300.78 730.22
  L 300.24 730.00
  L 292.51 730.00
  L 292.14 729.88
  L 292.01 729.50
  L 292.01 712.78
  L 292.24 712.24
  L 292.78 712.01
  L 308.12 712.01
  L 308.74 712.26
  L 309.00 712.88
  L 309.00 719.13
  L 309.25 719.75
  L 309.87 720.01
  L 309.87 720.01
  L 319.77 720.01
  L 320.65 719.64
  L 321.02 718.76
  L 321.02 712.29
  L 320.94 711.73
  L 320.70 711.33
  L 320.30 711.09
  L 319.73 711.01
  L 311.01 711.01
  L 310.30 710.72
  L 310.00 710.01
  L 310.00 702.76
  L 309.81 702.19
  L 309.24 702.00
  L 303.24 702.00
  L 302.38 701.83
  L 301.65 701.34
  L 301.16 700.61
  L 300.99 699.75
  L 300.99 694.74
  L 300.99 694.74
  L 300.77 694.22
  L 300.24 694.00
  L 292.50 694.00
  L 292.15 693.86
  L 292.01 693.51
  L 292.01 660.72
  L 292.13 660.16
  L 292.48 659.71
  L 292.98 659.45
  L 293.55 659.42
  L 293.77 659.48
  L 295.26 659.88
  L 296.88 660.07
  L 300.51 659.82
  L 301.11 659.60
  L 301.60 659.20
  L 301.92 658.65
  L 302.03 658.02
  L 302.03 651.79
  L 302.26 651.24
  L 302.81 651.01
  L 329.49 651.01
  L 329.88 651.14
  L 330.01 651.54
  L 330.01 658.18
  L 330.01 658.21
  L 330.28 658.78
  L 330.88 658.99
  L 335.29 659.02
  L 339.12 659.74
  L 339.68 660.13
  L 339.90 660.79
  L 339.90 677.78
  L 339.54 678.65
  L 338.67 679.01
  L 324.03 679.01
  L 323.26 678.86
  L 322.62 678.42
  L 322.18 677.78
  L 322.03 677.01
  L 322.03 670.79
  L 321.80 670.22
  L 321.23 669.99
  L 310.97 669.99
  Z"
/>
<path fill="#000000" d="
  M 376.99 687.69
  L 377.07 688.26
  L 377.31 688.66
  L 377.31 688.66
  L 377.71 688.90
  L 378.27 688.98
  L 384.59 688.98
  L 385.22 688.89
  L 385.68 688.62
  L 385.95 688.16
  L 386.04 687.53
  L 385.87 654.28
  L 385.70 652.88
  L 385.61 652.29
  L 385.74 651.72
  L 386.06 651.29
  L 386.51 651.07
  L 386.51 651.07
  L 386.69 651.05
  L 401.25 650.99
  L 401.79 651.21
  L 402.01 651.75
  L 402.01 737.37
  L 401.83 737.82
  L 401.39 738.00
  L 386.62 738.00
  L 386.16 737.85
  L 386.00 737.37
  L 386.00 721.76
  L 385.77 721.22
  L 385.23 720.99
  L 376.72 720.99
  L 376.23 720.79
  L 376.03 720.30
  L 375.94 710.92
  L 375.42 706.85
  L 375.03 704.32
  L 374.88 703.79
  L 374.55 703.36
  L 374.09 703.07
  L 373.55 702.97
  L 368.25 702.97
  L 367.31 703.28
  L 367.31 703.28
  L 367.07 703.68
  L 366.99 704.24
  L 366.99 737.01
  L 366.74 737.75
  L 366.00 738.00
  L 350.51 738.00
  L 350.14 737.88
  L 350.01 737.50
  L 350.01 652.01
  L 350.30 651.30
  L 351.01 651.00
  L 366.24 651.00
  L 366.77 651.22
  L 366.99 651.75
  L 366.99 669.98
  L 367.29 670.69
  L 368.00 670.99
  L 376.35 670.99
  L 376.80 671.17
  L 376.99 671.62
  L 376.99 671.62
  L 376.99 671.62
  L 376.99 687.69
  Z"
/>
<path fill="#000000" d="
  M 422.00 731.77
  L 421.78 731.23
  L 421.24 731.01
  L 413.77 731.01
  L 413.22 730.78
  L 412.99 730.23
  L 412.99 659.82
  L 413.20 659.20
  L 413.80 659.00
  L 421.24 659.00
  L 421.78 658.79
  L 422.04 658.28
  L 422.04 658.20
  L 422.04 651.80
  L 422.27 651.25
  L 422.81 651.02
  L 449.30 651.02
  L 450.13 651.33
  L 450.54 652.11
  L 451.33 658.13
  L 451.64 658.71
  L 452.26 658.94
  L 459.24 658.94
  L 459.76 659.15
  L 459.97 659.67
  L 459.98 728.56
  L 459.83 729.58
  L 459.41 730.28
  L 458.62 730.76
  L 457.36 730.91
  L 455.78 730.70
  L 453.59 730.15
  L 452.66 729.89
  L 452.49 729.86
  L 451.93 729.91
  L 451.43 730.19
  L 451.09 730.65
  L 450.97 731.21
  L 450.97 737.00
  L 450.68 737.70
  L 449.98 737.99
  L 422.76 737.99
  L 422.22 737.77
  L 422.00 737.23
  L 422.00 731.77
  Z
  M 442.99 671.00
  L 442.69 670.28
  L 441.97 669.98
  L 431.03 669.98
  L 430.31 670.28
  L 430.01 671.00
  L 430.01 719.96
  L 430.31 720.68
  L 431.03 720.98
  L 441.97 720.98
  L 442.69 720.68
  L 442.99 719.96
  L 442.99 671.00
  Z"
/>
<path fill="#000000" d="
  M 503.46 716.38
  L 503.40 716.36
  L 503.10 716.44
  L 502.97 716.72
  L 502.97 737.01
  L 502.69 737.70
  L 502.00 737.99
  L 486.81 737.99
  L 486.23 737.86
  L 485.76 737.50
  L 485.49 736.97
  L 485.48 736.38
  L 485.55 736.13
  L 485.69 735.82
  L 485.96 735.09
  L 485.97 734.91
  L 485.98 717.69
  L 485.77 717.20
  L 485.28 716.99
  L 478.05 716.99
  L 477.27 716.84
  L 476.61 716.40
  L 476.17 715.74
  L 476.01 714.96
  L 476.01 714.96
  L 476.01 714.96
  L 476.01 706.52
  L 475.85 706.15
  L 475.48 705.99
  L 470.52 705.99
  L 470.52 705.99
  L 470.16 705.84
  L 470.01 705.47
  L 470.01 652.02
  L 470.30 651.32
  L 471.00 651.03
  L 486.12 651.03
  L 486.66 651.21
  L 487.02 651.93
  L 487.02 703.00
  L 487.31 703.69
  L 488.01 703.98
  L 499.12 703.98
  L 499.35 703.95
  L 499.82 703.63
  L 500.00 703.10
  L 500.00 652.05
  L 500.26 651.29
  L 501.02 651.03
  L 516.45 651.03
  L 516.82 651.18
  L 516.98 651.55
  L 517.07 667.66
  L 516.61 683.90
  L 516.46 691.84
  L 517.10 703.34
  L 517.33 703.80
  L 517.81 703.99
  L 527.87 703.99
  L 528.67 703.66
  L 529.00 702.86
  L 529.00 652.01
  L 529.25 651.27
  L 529.99 651.02
  L 545.25 651.02
  L 545.81 651.21
  L 546.00 651.77
  L 546.00 705.90
  L 545.67 706.71
  L 544.86 707.04
  L 540.66 707.04
  L 540.19 707.23
  L 539.99 707.70
  L 539.99 707.70
  L 539.99 715.50
  L 539.87 715.88
  L 539.49 716.00
  L 531.50 716.00
  L 531.13 716.13
  L 531.00 716.50
  L 531.00 737.50
  L 530.88 737.86
  L 530.52 737.98
  L 514.92 737.98
  L 514.19 737.83
  L 513.58 737.42
  L 513.16 736.80
  L 513.02 736.07
  L 513.02 716.99
  L 512.88 716.59
  L 512.45 716.53
  L 508.75 716.97
  L 504.90 716.91
  L 504.58 716.86
  L 503.91 716.58
  L 503.46 716.38
  Z"
/>
<path fill="#000000" d="
  M 596.00 685.65
  L 596.00 693.47
  L 595.84 693.84
  L 595.46 694.00
  L 588.77 694.00
  L 588.23 694.23
  L 588.00 694.77
  L 588.00 737.37
  L 587.84 737.84
  L 587.37 738.00
  L 571.86 738.00
  L 571.20 737.78
  L 570.98 737.11
  L 570.98 695.88
  L 570.84 695.18
  L 570.45 694.59
  L 569.86 694.20
  L 569.16 694.06
  L 563.99 694.06
  L 563.37 693.82
  L 563.05 693.23
  L 563.00 690.33
  L 563.59 687.65
  L 563.59 687.65
  L 563.90 686.88
  L 563.88 686.34
  L 563.46 686.01
  L 563.33 686.00
  L 557.77 686.00
  L 557.23 685.77
  L 557.00 685.23
  L 557.00 651.77
  L 557.22 651.24
  L 557.76 651.02
  L 573.26 651.02
  L 573.79 651.24
  L 574.01 651.77
  L 574.01 678.26
  L 574.22 678.77
  L 574.73 678.98
  L 585.30 678.98
  L 585.83 678.81
  L 586.00 678.28
  L 586.00 653.07
  L 586.15 652.30
  L 586.59 651.66
  L 587.24 651.22
  L 588.01 651.07
  L 603.29 651.07
  L 603.81 651.28
  L 604.02 651.79
  L 604.02 651.79
  L 604.02 684.23
  L 603.80 684.77
  L 603.26 684.99
  L 596.65 684.99
  L 596.17 685.15
  L 596.00 685.65
  Z"
/>
<path fill="#000000" d="
  M 657.74 668.00
  L 658.01 667.73
  L 658.01 651.77
  L 658.23 651.23
  L 658.77 651.01
  L 673.44 651.01
  L 673.86 651.15
  L 674.00 651.57
  L 674.12 721.75
  L 674.14 724.69
  L 674.22 729.02
  L 674.52 732.21
  L 674.63 732.92
  L 674.83 734.88
  L 674.74 736.64
  L 674.21 737.61
  L 673.18 737.99
  L 658.49 737.99
  L 658.12 737.87
  L 658.00 737.50
  L 658.00 699.24
  L 657.69 698.30
  L 656.75 697.99
  L 651.53 697.99
  L 650.92 698.07
  L 650.46 698.33
  L 650.46 698.33
  L 650.15 698.75
  L 649.98 699.33
  L 649.17 704.99
  L 649.18 705.12
  L 649.60 706.40
  L 649.59 706.79
  L 649.25 706.96
  L 641.01 708.04
  L 640.13 708.03
  L 639.50 707.73
  L 639.12 707.14
  L 638.99 706.26
  L 638.99 699.36
  L 638.90 698.75
  L 638.64 698.31
  L 638.64 698.31
  L 638.64 698.31
  L 638.20 698.05
  L 637.59 697.96
  L 632.28 697.96
  L 631.72 698.04
  L 631.32 698.28
  L 631.32 698.28
  L 631.00 699.23
  L 631.00 737.25
  L 630.78 737.78
  L 630.25 738.00
  L 614.50 738.00
  L 614.13 737.88
  L 614.00 737.49
  L 614.00 652.00
  L 614.25 651.25
  L 615.00 651.00
  L 630.24 651.00
  L 630.24 651.00
  L 630.76 651.22
  L 630.98 651.75
  L 630.98 667.33
  L 631.10 667.92
  L 631.45 668.42
  L 631.97 668.74
  L 632.57 668.82
  L 632.57 668.82
  L 632.67 668.81
  L 637.64 668.16
  L 637.78 668.15
  L 638.60 668.26
  L 639.32 668.70
  L 639.80 669.39
  L 639.97 670.21
  L 639.97 674.24
  L 640.08 675.02
  L 640.42 675.58
  L 640.42 675.58
  L 640.98 675.92
  L 641.76 676.03
  L 647.31 676.03
  L 648.07 675.92
  L 648.60 675.60
  L 648.92 675.06
  L 649.03 674.32
  L 649.03 668.74
  L 649.25 668.22
  L 649.77 668.00
  L 657.74 668.00
  Z"
/>
<path fill="#000000" d="
  M 702.26 670.01
  L 702.00 670.26
  L 702.00 720.27
  L 702.21 720.77
  L 702.71 720.98
  L 713.10 720.98
  L 713.80 720.75
  L 714.03 720.05
  L 714.03 712.70
  L 714.23 712.21
  L 714.72 712.01
  L 731.25 712.01
  L 731.82 712.20
  L 732.00 712.75
  L 732.00 729.97
  L 731.72 730.69
  L 731.02 731.03
  L 728.20 730.97
  L 725.58 730.36
  L 724.62 729.98
  L 724.38 729.90
  L 723.86 729.91
  L 723.38 730.14
  L 723.06 730.56
  L 722.94 731.07
  L 722.94 736.09
  L 722.80 736.81
  L 722.39 737.42
  L 721.77 737.83
  L 721.05 737.97
  L 694.77 737.97
  L 694.23 737.75
  L 694.01 737.21
  L 694.01 731.77
  L 694.01 731.77
  L 693.78 731.23
  L 693.23 731.00
  L 686.96 731.00
  L 686.96 731.00
  L 686.21 730.85
  L 685.57 730.42
  L 685.14 729.78
  L 684.99 729.02
  L 684.99 659.82
  L 685.20 659.20
  L 685.80 659.00
  L 693.24 659.00
  L 693.81 658.77
  L 694.04 658.20
  L 694.04 651.79
  L 694.27 651.23
  L 694.82 651.00
  L 694.82 651.00
  L 694.82 651.00
  L 721.51 651.00
  L 721.86 651.15
  L 722.01 651.51
  L 722.01 657.86
  L 722.01 658.01
  L 722.26 658.88
  L 722.83 659.59
  L 723.63 660.01
  L 724.54 660.08
  L 730.33 659.32
  L 731.06 659.33
  L 731.58 659.57
  L 731.89 660.05
  L 731.99 660.77
  L 731.99 678.25
  L 731.99 678.25
  L 731.77 678.77
  L 731.24 678.99
  L 716.13 678.99
  L 715.32 678.83
  L 714.63 678.37
  L 714.17 677.69
  L 714.01 676.88
  L 714.01 676.88
  L 714.01 670.52
  L 713.88 670.14
  L 713.50 670.01
  L 702.26 670.01
  Z"
/>
</svg>
